<!DOCTYPE svg PUBLIC "-//W3C//DTD SVG 20010904//EN" "http://www.w3.org/TR/2001/REC-SVG-20010904/DTD/svg10.dtd">
<svg version="1.0" xmlns="http://www.w3.org/2000/svg" width="500px" height="128px" viewBox="0 0 5000 1280" preserveAspectRatio="xMidYMid meet">
<g id="layer101" fill="#040404" stroke="none">
 <path d="M0 640 l0 -640 2500 0 2500 0 0 640 0 640 -2500 0 -2500 0 0 -640z"/>
 </g>
<g id="layer102" fill="#fefefe" stroke="none">
 <path d="M0 640 l0 -640 2500 0 2500 0 0 640 0 640 -2500 0 -2500 0 0 -640z m937 559 c83 -40 136 -129 136 -229 0 -75 -16 -120 -64 -175 -94 -107 -262 -113 -367 -12 -115 110 -100 306 29 398 72 51 181 58 266 18z m1557 2 c23 -11 54 -30 70 -43 l29 -24 -29 -33 -30 -33 -51 32 c-61 38 -127 44 -186 16 -55 -27 -81 -69 -85 -141 -3 -50 0 -65 20 -94 36 -53 71 -74 131 -79 41 -3 63 1 95 17 22 11 43 25 47 31 10 16 28 11 60 -17 l29 -26 -38 -33 c-53 -46 -124 -68 -200 -62 -162 13 -266 147 -236 306 31 168 213 257 374 183z m-2284 -96 l0 -105 85 0 85 0 0 105 0 105 50 0 50 0 0 -245 0 -245 -50 0 -50 0 0 95 0 96 -82 -3 -83 -3 -3 -92 -3 -93 -44 0 -45 0 0 245 0 245 45 0 45 0 0 -105z m1240 -5 l0 -110 78 0 77 0 -3 -45 -4 -45 -74 0 -74 0 0 -45 0 -45 74 0 74 0 4 -34 c2 -19 2 -39 0 -45 -2 -7 -44 -11 -123 -11 l-119 0 0 245 0 245 45 0 45 0 0 -110z m334 101 c3 -5 6 -75 7 -155 l1 -146 26 0 c15 0 40 -7 56 -15 26 -14 31 -14 45 0 13 11 16 26 11 62 -3 26 -4 96 -2 155 l3 108 45 0 44 0 0 -193 c0 -215 -6 -241 -70 -284 -43 -30 -130 -31 -180 -4 -67 36 -75 61 -78 284 l-4 197 46 0 c24 0 47 -4 50 -9z m986 -92 c0 -59 4 -98 9 -94 5 3 40 48 77 100 l67 95 54 0 c41 0 52 -3 47 -12 -4 -7 -45 -66 -91 -131 -46 -64 -83 -120 -83 -125 0 -4 38 -54 84 -112 l84 -105 -50 -3 c-59 -4 -66 1 -141 100 l-52 68 -3 -85 -3 -85 -44 0 -44 0 -3 245 -3 245 48 0 47 0 0 -101z m2139 -573 c37 -64 38 -70 7 -84 -23 -10 -25 -8 -51 53 -15 35 -24 68 -21 74 15 23 36 9 65 -43z m-3758 -26 c165 -84 162 -328 -4 -406 -93 -43 -184 -27 -257 46 -102 101 -90 251 25 342 59 46 164 54 236 18z m1625 -1 c23 -11 50 -29 60 -40 17 -19 17 -20 -8 -45 l-26 -26 -44 26 c-80 47 -177 30 -218 -37 -25 -40 -26 -118 -3 -157 43 -73 156 -91 229 -35 l36 28 25 -26 c33 -32 26 -48 -31 -82 -117 -69 -279 -28 -335 84 -69 137 7 304 150 329 59 11 116 4 165 -19z m1933 1 c53 -27 109 -94 119 -144 22 -110 -24 -211 -117 -259 -94 -47 -186 -32 -262 43 -92 92 -91 226 3 320 18 18 46 39 63 46 47 20 149 18 194 -6z m-4517 -82 l3 -93 72 -3 c70 -3 73 -2 79 22 3 13 4 56 2 95 l-3 71 43 0 42 0 0 -215 0 -215 -42 0 -43 0 3 80 4 80 -81 0 -81 0 0 -80 0 -80 -40 0 -40 0 0 215 0 215 40 0 39 0 3 -92z m576 55 l-3 -38 -77 -3 -78 -3 0 -54 0 -54 78 -3 77 -3 0 -35 0 -35 -77 -3 -78 -3 0 -39 0 -40 80 0 80 0 0 -40 0 -40 -120 0 -120 0 0 215 0 215 121 0 120 0 -3 -37z m803 14 c22 -15 39 -38 49 -65 13 -37 13 -47 0 -84 -19 -54 -62 -83 -135 -93 l-55 -6 0 -40 0 -39 75 0 75 0 0 -40 0 -40 -115 0 -115 0 0 215 0 215 94 0 c80 0 98 -3 127 -23z m399 8 c39 -20 60 -63 60 -120 0 -37 -6 -51 -32 -80 -27 -29 -45 -38 -95 -47 l-63 -12 0 -78 0 -78 -90 0 -90 0 0 40 0 40 50 0 50 0 0 175 0 175 90 0 c62 0 100 -5 120 -15z m242 -70 c23 -47 48 -85 55 -85 10 0 13 23 13 85 l0 85 40 0 40 0 0 -216 0 -216 -101 4 -101 3 -34 37 c-29 33 -34 45 -34 89 0 42 5 55 28 78 15 15 33 30 41 32 10 4 1 29 -33 97 l-46 92 45 0 45 0 42 -85z m800 -7 l3 -93 73 -3 72 -3 0 96 0 95 45 0 45 0 0 -215 0 -215 -46 0 -46 0 4 80 3 80 -77 0 -78 0 0 -80 0 -80 -40 0 -40 0 0 215 0 215 40 0 39 0 3 -92z m484 -33 c42 -69 80 -125 83 -125 4 0 5 56 3 125 l-4 125 46 0 46 0 0 -216 0 -215 -37 3 c-35 3 -39 8 -108 121 -40 65 -78 124 -84 130 -8 8 -11 -23 -11 -121 l0 -132 -40 0 -40 0 0 215 0 215 34 0 c33 0 37 -5 112 -125z m265 115 c13 -7 19 -7 19 0 0 5 4 10 8 10 8 0 23 -61 36 -137 2 -13 16 -42 32 -65 l29 -43 3 35 c1 19 7 61 13 93 10 48 17 61 40 72 20 11 35 12 52 6 13 -5 43 -7 66 -4 27 4 46 1 57 -8 24 -20 50 -86 59 -147 l7 -52 24 52 c14 29 32 66 39 81 8 16 15 46 15 67 0 42 14 60 24 33 5 -12 9 -14 18 -5 17 17 65 15 72 -3 3 -8 -3 -20 -13 -27 -20 -14 -41 -68 -41 -104 0 -13 -6 -27 -14 -31 -8 -4 -29 -46 -46 -93 -31 -86 -73 -160 -89 -160 -38 0 -54 34 -81 171 -12 62 -34 81 -82 72 -23 -4 -27 -12 -43 -91 -9 -48 -23 -102 -31 -120 -27 -67 -66 -23 -125 141 -18 49 -38 91 -46 94 -7 3 -13 16 -13 29 0 32 -23 85 -43 102 -35 29 9 55 54 32z"/>
 <path d="M783 1130 c-79 -19 -123 -75 -123 -159 0 -169 193 -233 294 -98 28 37 33 124 11 172 -31 64 -112 102 -182 85z"/>
 <path d="M1770 881 c0 -21 20 -60 41 -80 27 -25 44 -27 35 -6 -8 21 11 19 23 -2 9 -16 12 -16 36 7 27 25 50 68 41 77 -3 3 -15 -2 -27 -10 -20 -15 -25 -14 -60 4 -40 20 -89 26 -89 10z"/>
 <path d="M983 468 c-46 -62 -60 -87 -58 -108 1 -8 3 -25 3 -37 1 -12 8 -28 15 -35 7 -7 21 -29 31 -48 10 -19 27 -51 37 -70 10 -19 19 -45 19 -57 0 -37 26 -26 38 16 7 21 25 55 42 76 16 21 30 44 30 51 0 7 9 19 21 28 18 12 20 22 16 65 -3 33 -13 60 -28 79 -13 16 -32 44 -42 62 -10 18 -20 30 -23 27 -7 -6 32 -83 46 -92 6 -4 8 -11 5 -16 -4 -5 -2 -9 4 -9 6 0 8 -7 5 -15 -4 -8 -2 -15 2 -15 5 0 9 -13 9 -30 0 -16 -2 -30 -5 -30 -3 0 -14 -17 -25 -37 -10 -21 -32 -50 -47 -65 l-28 -26 -30 28 c-16 15 -30 31 -30 35 0 4 -9 18 -20 32 -23 30 -27 98 -7 128 26 38 69 115 64 115 -2 0 -22 -24 -44 -52z"/>
 <path d="M1046 503 c-20 -20 -46 -101 -46 -143 0 -45 35 -160 49 -160 3 0 16 25 29 55 26 65 28 133 6 198 -16 49 -26 61 -38 50z m20 -54 c0 -8 5 -22 9 -33 10 -23 -6 -71 -24 -71 -21 0 -36 54 -22 77 6 10 11 25 11 34 0 19 25 13 26 -7z m3 -152 c12 -15 -3 -37 -25 -37 -17 0 -24 26 -11 39 14 14 22 14 36 -2z"/>
 <path d="M4529 427 c-121 -80 -64 -267 81 -267 40 0 81 22 114 60 31 37 36 112 11 161 -36 68 -139 91 -206 46z"/>
 <path d="M1430 385 l0 -55 38 0 c43 0 54 6 71 38 10 19 10 28 -4 48 -12 19 -24 24 -60 24 l-45 0 0 -55z"/>
 <path d="M1840 385 l0 -55 33 0 c46 0 77 25 77 60 0 35 -23 50 -74 50 l-36 0 0 -55z"/>
 <path d="M2198 259 c-25 -14 -24 -65 1 -79 11 -5 33 -10 50 -10 30 0 31 1 31 50 0 50 0 50 -32 50 -18 0 -41 -5 -50 -11z"/>
 </g>

</svg>